<svg width="44" height="44" viewBox="0 0 44 44" fill="none" xmlns="http://www.w3.org/2000/svg">
<circle cx="22" cy="22" r="21.5" stroke="#669966"/>
<path fill-rule="evenodd" clip-rule="evenodd" d="M18.194 14.194C17.9353 14.4527 17.9353 14.8721 18.194 15.1308L25.22 22.1568L18.1941 29.1827C17.9354 29.4414 17.9354 29.8608 18.1941 30.1195C18.4528 30.3782 18.8722 30.3782 19.1309 30.1195L26.6219 22.6285C26.623 22.6274 26.6241 22.6263 26.6252 22.6252C26.6414 22.6091 26.6565 22.5923 26.6707 22.5749C26.6848 22.5576 26.698 22.5397 26.7101 22.5213C26.8799 22.2642 26.8517 21.9147 26.6253 21.6883C26.6225 21.6856 26.6197 21.6828 26.6169 21.6802L19.1308 14.194C18.8721 13.9353 18.4527 13.9353 18.194 14.194Z" fill="#669966"/>
</svg>
