<svg width="44" height="44" viewBox="0 0 44 44" fill="none" xmlns="http://www.w3.org/2000/svg">
<circle cx="22" cy="22" r="21.5" transform="rotate(-180 22 22)" stroke="#669966"/>
<path fill-rule="evenodd" clip-rule="evenodd" d="M25.806 29.806C26.0647 29.5473 26.0647 29.1279 25.806 28.8692L18.78 21.8432L25.8059 14.8173C26.0646 14.5586 26.0646 14.1392 25.8059 13.8805C25.5472 13.6218 25.1278 13.6218 24.8691 13.8805L17.3781 21.3715C17.377 21.3726 17.3759 21.3737 17.3748 21.3748C17.3586 21.3909 17.3435 21.4077 17.3293 21.4251C17.3152 21.4424 17.302 21.4603 17.2899 21.4787C17.1201 21.7358 17.1483 22.0853 17.3747 22.3117C17.3775 22.3144 17.3803 22.3171 17.3831 22.3198L24.8692 29.806C25.1279 30.0647 25.5473 30.0647 25.806 29.806Z" fill="#669966"/>
</svg>
