<svg width="26" height="19" viewBox="0 0 26 19" fill="none" xmlns="http://www.w3.org/2000/svg">
<g id="Group 3">
<path id="Union" fill-rule="evenodd" clip-rule="evenodd" d="M11.3163 0.0697464C11.0647 -0.0745083 10.7425 0.0118567 10.5972 0.265573L6.53752 7.37008H0.5269C0.360536 7.37008 0.203697 7.44904 0.103661 7.5817C0.00471159 7.71539 -0.025837 7.88807 0.0225769 8.04703L2.73045 17.0751C3.06737 18.1974 4.08125 18.9512 5.25197 18.9512H20.0169C21.1877 18.9512 22.2016 18.1974 22.5374 17.0761L25.2453 8.04807C25.2938 7.88911 25.2632 7.71539 25.1643 7.58273C25.0653 7.44904 24.9084 7.37008 24.7421 7.37008H18.7315L14.6718 0.265573C14.5244 0.0118567 14.2012 -0.0745083 13.9527 0.0697464C13.699 0.214001 13.6116 0.535082 13.7558 0.787762L17.5171 7.37008H7.75189L11.5132 0.787762C11.6564 0.535082 11.569 0.213952 11.3163 0.0697464ZM21.5299 16.7729C21.3267 17.4457 20.7192 17.8984 20.0159 17.8984H5.25202C4.54871 17.8984 3.94124 17.4457 3.7391 16.7729L1.2344 8.4229H24.0346L21.5299 16.7729Z" fill="white"/>
</g>
</svg>
