<svg width="29" height="26" viewBox="0 0 29 26" fill="none" xmlns="http://www.w3.org/2000/svg">
<path opacity="0.6" d="M21.2969 0C18.2075 0 15.9151 1.89729 14.5 4.58874C13.0851 1.89746 10.7926 0 7.70312 0C3.25066 0 0 3.73913 0 8.2987C0 14.3285 5.7531 18.114 13.9405 25.278C14.2609 25.5583 14.7391 25.5583 15.0595 25.278C23.2394 18.1206 29 14.3292 29 8.2987C29 3.73839 25.7488 0 21.2969 0ZM14.5 23.5116C6.95989 16.9619 1.69922 13.3235 1.69922 8.2987C1.69922 4.5364 4.28033 1.69922 7.70312 1.69922C11.0026 1.69922 13.0472 4.75481 13.6811 7.02321C13.9097 7.85073 15.0875 7.85441 15.3189 7.02321C15.9444 4.78489 17.9653 1.69922 21.2969 1.69922C24.7197 1.69922 27.3008 4.5364 27.3008 8.2987C27.3008 13.3264 22.0315 16.9694 14.5 23.5116Z" fill="#999999"/>
</svg>
