<svg width="177" height="74" viewBox="0 0 177 74" fill="none" xmlns="http://www.w3.org/2000/svg">
<path d="M34.8594 12.0547H31.75V10.6641H34.8594V7.47656H36.2656V10.6641H39.3828V12.0547H36.2656V15.2266H34.8594V12.0547ZM48.1562 8.20312C48.1562 8.92708 47.9453 9.53125 47.5234 10.0156C47.1016 10.4948 46.5078 10.8177 45.7422 10.9844V11.0469C46.6589 11.1615 47.3464 11.4479 47.8047 11.9062C48.263 12.3594 48.4922 12.9635 48.4922 13.7188C48.4922 14.8177 48.1042 15.6667 47.3281 16.2656C46.5521 16.8594 45.4479 17.1562 44.0156 17.1562C42.75 17.1562 41.6823 16.9505 40.8125 16.5391V14.9062C41.2969 15.1458 41.8099 15.3307 42.3516 15.4609C42.8932 15.5911 43.4141 15.6562 43.9141 15.6562C44.7995 15.6562 45.4609 15.4922 45.8984 15.1641C46.3359 14.8359 46.5547 14.3281 46.5547 13.6406C46.5547 13.0312 46.3125 12.5833 45.8281 12.2969C45.3438 12.0104 44.5833 11.8672 43.5469 11.8672H42.5547V10.375H43.5625C45.3854 10.375 46.2969 9.74479 46.2969 8.48438C46.2969 7.99479 46.138 7.61719 45.8203 7.35156C45.5026 7.08594 45.0339 6.95312 44.4141 6.95312C43.9818 6.95312 43.5651 7.01562 43.1641 7.14062C42.763 7.26042 42.2891 7.4974 41.7422 7.85156L40.8438 6.57031C41.8906 5.79948 43.1068 5.41406 44.4922 5.41406C45.6432 5.41406 46.5417 5.66146 47.1875 6.15625C47.8333 6.65104 48.1562 7.33333 48.1562 8.20312ZM51.2812 17L55.7969 7.21094H49.8594V5.59375H57.7578V6.875L53.2656 17H51.2812ZM63 9.86719C64.151 9.86719 65.0625 10.1719 65.7344 10.7812C66.4062 11.3906 66.7422 12.2214 66.7422 13.2734C66.7422 14.4922 66.3594 15.4453 65.5938 16.1328C64.8333 16.8151 63.75 17.1562 62.3438 17.1562C61.0677 17.1562 60.0651 16.9505 59.3359 16.5391V14.875C59.7578 15.1146 60.2422 15.2995 60.7891 15.4297C61.3359 15.5599 61.8438 15.625 62.3125 15.625C63.1406 15.625 63.7708 15.4401 64.2031 15.0703C64.6354 14.7005 64.8516 14.1589 64.8516 13.4453C64.8516 12.0807 63.9818 11.3984 62.2422 11.3984C61.9974 11.3984 61.6953 11.4245 61.3359 11.4766C60.9766 11.5234 60.6615 11.5781 60.3906 11.6406L59.5703 11.1562L60.0078 5.57812H65.9453V7.21094H61.625L61.3672 10.0391C61.5495 10.0078 61.7708 9.97135 62.0312 9.92969C62.2969 9.88802 62.6198 9.86719 63 9.86719ZM72.3594 12.6172C72.3594 11.237 72.5599 9.94531 72.9609 8.74219C73.3672 7.53906 73.9505 6.48438 74.7109 5.57812H76.3125C75.5885 6.55729 75.0339 7.65625 74.6484 8.875C74.263 10.0885 74.0703 11.3307 74.0703 12.6016C74.0703 13.8724 74.263 15.1042 74.6484 16.2969C75.0339 17.4896 75.5833 18.5677 76.2969 19.5312H74.7109C73.9453 18.6458 73.362 17.612 72.9609 16.4297C72.5599 15.2474 72.3594 13.9766 72.3594 12.6172ZM85.2422 17H77.5V15.6094L80.4453 12.6484C81.3151 11.7578 81.8906 11.1276 82.1719 10.7578C82.4583 10.3828 82.6667 10.0312 82.7969 9.70312C82.9271 9.375 82.9922 9.02344 82.9922 8.64844C82.9922 8.13281 82.8359 7.72656 82.5234 7.42969C82.2161 7.13281 81.7891 6.98438 81.2422 6.98438C80.8047 6.98438 80.3802 7.0651 79.9688 7.22656C79.5625 7.38802 79.0911 7.67969 78.5547 8.10156L77.5625 6.89062C78.1979 6.35417 78.8151 5.97396 79.4141 5.75C80.013 5.52604 80.651 5.41406 81.3281 5.41406C82.3906 5.41406 83.2422 5.69271 83.8828 6.25C84.5234 6.80208 84.8438 7.54688 84.8438 8.48438C84.8438 9 84.75 9.48958 84.5625 9.95312C84.3802 10.4167 84.0964 10.8958 83.7109 11.3906C83.3307 11.8802 82.6953 12.5443 81.8047 13.3828L79.8203 15.3047V15.3828H85.2422V17ZM94.3672 10.4531C94.3672 12.7031 93.9141 14.3828 93.0078 15.4922C92.1016 16.6016 90.737 17.1562 88.9141 17.1562C88.2214 17.1562 87.724 17.1146 87.4219 17.0312V15.4922C87.8854 15.6224 88.3516 15.6875 88.8203 15.6875C90.0599 15.6875 90.9844 15.3542 91.5938 14.6875C92.2031 14.0208 92.5365 12.974 92.5938 11.5469H92.5C92.1927 12.0156 91.8203 12.3542 91.3828 12.5625C90.9505 12.7708 90.4427 12.875 89.8594 12.875C88.849 12.875 88.0547 12.5599 87.4766 11.9297C86.8984 11.2995 86.6094 10.4349 86.6094 9.33594C86.6094 8.14323 86.9427 7.19531 87.6094 6.49219C88.2812 5.78385 89.1953 5.42969 90.3516 5.42969C91.1641 5.42969 91.8724 5.6276 92.4766 6.02344C93.0807 6.41927 93.5469 6.99479 93.875 7.75C94.2031 8.5 94.3672 9.40104 94.3672 10.4531ZM90.3828 6.95312C89.7474 6.95312 89.2604 7.16146 88.9219 7.57812C88.5833 7.98958 88.4141 8.57031 88.4141 9.32031C88.4141 9.97135 88.5703 10.4844 88.8828 10.8594C89.2005 11.2292 89.6797 11.4141 90.3203 11.4141C90.9401 11.4141 91.4609 11.2292 91.8828 10.8594C92.3047 10.4896 92.5156 10.0573 92.5156 9.5625C92.5156 9.09896 92.4245 8.66667 92.2422 8.26562C92.0651 7.85938 91.8151 7.53906 91.4922 7.30469C91.1693 7.07031 90.7995 6.95312 90.3828 6.95312ZM99.5078 12.6172C99.5078 13.987 99.3047 15.263 98.8984 16.4453C98.4974 17.6276 97.9167 18.6562 97.1562 19.5312H95.5703C96.2891 18.5573 96.8385 17.4766 97.2188 16.2891C97.6042 15.1016 97.7969 13.8724 97.7969 12.6016C97.7969 11.3255 97.6042 10.0833 97.2188 8.875C96.8333 7.66146 96.2786 6.5625 95.5547 5.57812H97.1562C97.9219 6.48958 98.5052 7.54948 98.9062 8.75781C99.3073 9.96094 99.5078 11.2474 99.5078 12.6172ZM106.312 17L110.828 7.21094H104.891V5.59375H112.789V6.875L108.297 17H106.312ZM114.188 12.1328C114.188 7.66406 116.008 5.42969 119.648 5.42969C120.221 5.42969 120.706 5.47396 121.102 5.5625V7.09375C120.706 6.97917 120.247 6.92188 119.727 6.92188C118.503 6.92188 117.583 7.25 116.969 7.90625C116.354 8.5625 116.021 9.61458 115.969 11.0625H116.062C116.307 10.6406 116.651 10.3151 117.094 10.0859C117.536 9.85156 118.057 9.73438 118.656 9.73438C119.693 9.73438 120.5 10.0521 121.078 10.6875C121.656 11.3229 121.945 12.1849 121.945 13.2734C121.945 14.4714 121.609 15.4193 120.938 16.1172C120.271 16.8099 119.359 17.1562 118.203 17.1562C117.385 17.1562 116.674 16.9609 116.07 16.5703C115.466 16.1745 115 15.6016 114.672 14.8516C114.349 14.0964 114.188 13.1901 114.188 12.1328ZM118.172 15.6406C118.802 15.6406 119.286 15.4375 119.625 15.0312C119.969 14.625 120.141 14.0443 120.141 13.2891C120.141 12.6328 119.979 12.1172 119.656 11.7422C119.339 11.3672 118.859 11.1797 118.219 11.1797C117.823 11.1797 117.458 11.2656 117.125 11.4375C116.792 11.6042 116.529 11.8359 116.336 12.1328C116.143 12.4245 116.047 12.724 116.047 13.0312C116.047 13.7656 116.245 14.3854 116.641 14.8906C117.042 15.3906 117.552 15.6406 118.172 15.6406ZM127.172 9.86719C128.323 9.86719 129.234 10.1719 129.906 10.7812C130.578 11.3906 130.914 12.2214 130.914 13.2734C130.914 14.4922 130.531 15.4453 129.766 16.1328C129.005 16.8151 127.922 17.1562 126.516 17.1562C125.24 17.1562 124.237 16.9505 123.508 16.5391V14.875C123.93 15.1146 124.414 15.2995 124.961 15.4297C125.508 15.5599 126.016 15.625 126.484 15.625C127.312 15.625 127.943 15.4401 128.375 15.0703C128.807 14.7005 129.023 14.1589 129.023 13.4453C129.023 12.0807 128.154 11.3984 126.414 11.3984C126.169 11.3984 125.867 11.4245 125.508 11.4766C125.148 11.5234 124.833 11.5781 124.562 11.6406L123.742 11.1562L124.18 5.57812H130.117V7.21094H125.797L125.539 10.0391C125.721 10.0078 125.943 9.97135 126.203 9.92969C126.469 9.88802 126.792 9.86719 127.172 9.86719ZM144.742 14.5078H143.203V17H141.414V14.5078H136.195V13.0938L141.414 5.54688H143.203V12.9844H144.742V14.5078ZM141.414 12.9844V10.1172C141.414 9.09635 141.44 8.26042 141.492 7.60938H141.43C141.284 7.95312 141.055 8.36979 140.742 8.85938L137.906 12.9844H141.414ZM149.609 9.86719C150.76 9.86719 151.672 10.1719 152.344 10.7812C153.016 11.3906 153.352 12.2214 153.352 13.2734C153.352 14.4922 152.969 15.4453 152.203 16.1328C151.443 16.8151 150.359 17.1562 148.953 17.1562C147.677 17.1562 146.674 16.9505 145.945 16.5391V14.875C146.367 15.1146 146.852 15.2995 147.398 15.4297C147.945 15.5599 148.453 15.625 148.922 15.625C149.75 15.625 150.38 15.4401 150.812 15.0703C151.245 14.7005 151.461 14.1589 151.461 13.4453C151.461 12.0807 150.591 11.3984 148.852 11.3984C148.607 11.3984 148.305 11.4245 147.945 11.4766C147.586 11.5234 147.271 11.5781 147 11.6406L146.18 11.1562L146.617 5.57812H152.555V7.21094H148.234L147.977 10.0391C148.159 10.0078 148.38 9.97135 148.641 9.92969C148.906 9.88802 149.229 9.86719 149.609 9.86719ZM159.062 12.1328C159.062 7.66406 160.883 5.42969 164.523 5.42969C165.096 5.42969 165.581 5.47396 165.977 5.5625V7.09375C165.581 6.97917 165.122 6.92188 164.602 6.92188C163.378 6.92188 162.458 7.25 161.844 7.90625C161.229 8.5625 160.896 9.61458 160.844 11.0625H160.938C161.182 10.6406 161.526 10.3151 161.969 10.0859C162.411 9.85156 162.932 9.73438 163.531 9.73438C164.568 9.73438 165.375 10.0521 165.953 10.6875C166.531 11.3229 166.82 12.1849 166.82 13.2734C166.82 14.4714 166.484 15.4193 165.812 16.1172C165.146 16.8099 164.234 17.1562 163.078 17.1562C162.26 17.1562 161.549 16.9609 160.945 16.5703C160.341 16.1745 159.875 15.6016 159.547 14.8516C159.224 14.0964 159.062 13.1901 159.062 12.1328ZM163.047 15.6406C163.677 15.6406 164.161 15.4375 164.5 15.0312C164.844 14.625 165.016 14.0443 165.016 13.2891C165.016 12.6328 164.854 12.1172 164.531 11.7422C164.214 11.3672 163.734 11.1797 163.094 11.1797C162.698 11.1797 162.333 11.2656 162 11.4375C161.667 11.6042 161.404 11.8359 161.211 12.1328C161.018 12.4245 160.922 12.724 160.922 13.0312C160.922 13.7656 161.12 14.3854 161.516 14.8906C161.917 15.3906 162.427 15.6406 163.047 15.6406ZM172.047 9.86719C173.198 9.86719 174.109 10.1719 174.781 10.7812C175.453 11.3906 175.789 12.2214 175.789 13.2734C175.789 14.4922 175.406 15.4453 174.641 16.1328C173.88 16.8151 172.797 17.1562 171.391 17.1562C170.115 17.1562 169.112 16.9505 168.383 16.5391V14.875C168.805 15.1146 169.289 15.2995 169.836 15.4297C170.383 15.5599 170.891 15.625 171.359 15.625C172.188 15.625 172.818 15.4401 173.25 15.0703C173.682 14.7005 173.898 14.1589 173.898 13.4453C173.898 12.0807 173.029 11.3984 171.289 11.3984C171.044 11.3984 170.742 11.4245 170.383 11.4766C170.023 11.5234 169.708 11.5781 169.438 11.6406L168.617 11.1562L169.055 5.57812H174.992V7.21094H170.672L170.414 10.0391C170.596 10.0078 170.818 9.97135 171.078 9.92969C171.344 9.88802 171.667 9.86719 172.047 9.86719Z" fill="#3F3F3F"/>
<path d="M20.4754 15.4713C19.3121 15.4713 18.17 15.2894 17.0876 14.9317C16.5573 14.7508 15.9053 14.9167 15.5816 15.2492L13.4452 16.8619C10.9677 15.5394 9.44153 14.0137 8.13706 11.5548L9.70233 9.47408C10.109 9.06796 10.2549 8.47471 10.0801 7.91807C9.72089 6.83002 9.53841 5.68839 9.53841 4.52465C9.53846 3.68395 8.85451 3 8.01386 3H4.5246C3.68395 3 3 3.68395 3 4.5246C3 14.1606 10.8394 22 20.4754 22C21.3161 22 22 21.316 22 20.4754V16.9958C22 16.1552 21.316 15.4713 20.4754 15.4713Z" fill="#3F3F3F"/>
<path d="M10.0938 47H8.76562V36.7578H2.89844V47H1.57031V35.5781H10.0938V47ZM14.3438 38.4375V42.0234H19.1406V38.4375H20.4375V47H19.1406V43.1406H14.3438V47H13.0469V38.4375H14.3438ZM26.625 43.3047V42.1172H30.4609V43.3047H26.625ZM37.9531 47H36.6562V38.4375H43.8438V47H42.5312V39.5625H37.9531V47ZM52.3672 39.5469H49.5859V47H48.2891V39.5469H45.5391V38.4375H52.3672V39.5469ZM69.9531 47.1562C68.7135 47.1562 67.7526 46.776 67.0703 46.0156C66.3932 45.25 66.0547 44.1693 66.0547 42.7734C66.0547 41.3411 66.3984 40.2344 67.0859 39.4531C67.7786 38.6719 68.763 38.2812 70.0391 38.2812C70.4505 38.2812 70.862 38.3255 71.2734 38.4141C71.6849 38.5026 72.0078 38.6068 72.2422 38.7266L71.8438 39.8281C71.5573 39.7135 71.2448 39.6198 70.9062 39.5469C70.5677 39.4688 70.2682 39.4297 70.0078 39.4297C68.2682 39.4297 67.3984 40.5391 67.3984 42.7578C67.3984 43.8099 67.6094 44.6172 68.0312 45.1797C68.4583 45.7422 69.0885 46.0234 69.9219 46.0234C70.6354 46.0234 71.3672 45.8698 72.1172 45.5625V46.7109C71.5443 47.0078 70.8229 47.1562 69.9531 47.1562ZM85.2266 40.4531C85.2266 44.9219 83.4974 47.1562 80.0391 47.1562C79.4349 47.1562 78.9557 47.1042 78.6016 47V45.8828C79.0182 46.0182 79.4922 46.0859 80.0234 46.0859C81.2734 46.0859 82.2161 45.7005 82.8516 44.9297C83.4922 44.1536 83.8411 42.9661 83.8984 41.3672H83.8047C83.5182 41.7995 83.138 42.1302 82.6641 42.3594C82.1901 42.5833 81.6562 42.6953 81.0625 42.6953C80.0521 42.6953 79.25 42.3932 78.6562 41.7891C78.0625 41.1849 77.7656 40.3411 77.7656 39.2578C77.7656 38.0703 78.0964 37.1328 78.7578 36.4453C79.4245 35.7578 80.2995 35.4141 81.3828 35.4141C82.1589 35.4141 82.8359 35.6146 83.4141 36.0156C83.9974 36.4115 84.4453 36.9922 84.7578 37.7578C85.0703 38.5182 85.2266 39.4167 85.2266 40.4531ZM81.3828 36.5234C80.638 36.5234 80.0625 36.763 79.6562 37.2422C79.25 37.7214 79.0469 38.388 79.0469 39.2422C79.0469 39.9922 79.2344 40.5833 79.6094 41.0156C79.9844 41.4427 80.5547 41.6562 81.3203 41.6562C81.7943 41.6562 82.2292 41.5599 82.625 41.3672C83.026 41.1745 83.3411 40.9115 83.5703 40.5781C83.7995 40.2448 83.9141 39.8958 83.9141 39.5312C83.9141 38.9844 83.8073 38.4792 83.5938 38.0156C83.3802 37.5521 83.0807 37.1875 82.6953 36.9219C82.3151 36.6562 81.8776 36.5234 81.3828 36.5234ZM87.2812 46.1719C87.2812 45.8229 87.3594 45.5599 87.5156 45.3828C87.6771 45.2005 87.9062 45.1094 88.2031 45.1094C88.5052 45.1094 88.7396 45.2005 88.9062 45.3828C89.0781 45.5599 89.1641 45.8229 89.1641 46.1719C89.1641 46.5104 89.0781 46.7708 88.9062 46.9531C88.7344 47.1354 88.5 47.2266 88.2031 47.2266C87.9375 47.2266 87.7161 47.1458 87.5391 46.9844C87.3672 46.8177 87.2812 46.5469 87.2812 46.1719ZM87.2812 39.2734C87.2812 38.5703 87.5885 38.2188 88.2031 38.2188C88.8438 38.2188 89.1641 38.5703 89.1641 39.2734C89.1641 39.612 89.0781 39.8724 88.9062 40.0547C88.7344 40.237 88.5 40.3281 88.2031 40.3281C87.9375 40.3281 87.7161 40.2474 87.5391 40.0859C87.3672 39.9193 87.2812 39.6484 87.2812 39.2734ZM98.7109 41.2734C98.7109 43.2474 98.3984 44.7214 97.7734 45.6953C97.1536 46.6693 96.2031 47.1562 94.9219 47.1562C93.6927 47.1562 92.7578 46.6589 92.1172 45.6641C91.4766 44.6641 91.1562 43.2005 91.1562 41.2734C91.1562 39.2839 91.4661 37.8073 92.0859 36.8438C92.7057 35.8802 93.651 35.3984 94.9219 35.3984C96.1615 35.3984 97.1016 35.901 97.7422 36.9062C98.388 37.9115 98.7109 39.3672 98.7109 41.2734ZM92.4688 41.2734C92.4688 42.9349 92.6641 44.1458 93.0547 44.9062C93.4453 45.6615 94.0677 46.0391 94.9219 46.0391C95.7865 46.0391 96.4115 45.6562 96.7969 44.8906C97.1875 44.1198 97.3828 42.9141 97.3828 41.2734C97.3828 39.6328 97.1875 38.4323 96.7969 37.6719C96.4115 36.9062 95.7865 36.5234 94.9219 36.5234C94.0677 36.5234 93.4453 36.901 93.0547 37.6562C92.6641 38.4062 92.4688 39.612 92.4688 41.2734ZM107.867 41.2734C107.867 43.2474 107.555 44.7214 106.93 45.6953C106.31 46.6693 105.359 47.1562 104.078 47.1562C102.849 47.1562 101.914 46.6589 101.273 45.6641C100.633 44.6641 100.312 43.2005 100.312 41.2734C100.312 39.2839 100.622 37.8073 101.242 36.8438C101.862 35.8802 102.807 35.3984 104.078 35.3984C105.318 35.3984 106.258 35.901 106.898 36.9062C107.544 37.9115 107.867 39.3672 107.867 41.2734ZM101.625 41.2734C101.625 42.9349 101.82 44.1458 102.211 44.9062C102.602 45.6615 103.224 46.0391 104.078 46.0391C104.943 46.0391 105.568 45.6562 105.953 44.8906C106.344 44.1198 106.539 42.9141 106.539 41.2734C106.539 39.6328 106.344 38.4323 105.953 37.6719C105.568 36.9062 104.943 36.5234 104.078 36.5234C103.224 36.5234 102.602 36.901 102.211 37.6562C101.82 38.4062 101.625 39.612 101.625 41.2734ZM121.641 49.9609H120.383V47H114.398V49.9609H113.148V45.8828H113.82C114.518 44.9349 115.065 43.8229 115.461 42.5469C115.857 41.2708 116.062 39.901 116.078 38.4375H120.414V45.8828H121.641V49.9609ZM119.164 45.8828V39.4609H117.242C117.174 40.6172 116.951 41.7891 116.57 42.9766C116.195 44.1589 115.727 45.1276 115.164 45.8828H119.164ZM130.75 42.7109C130.75 44.1068 130.398 45.1979 129.695 45.9844C128.992 46.7656 128.021 47.1562 126.781 47.1562C126.016 47.1562 125.336 46.9766 124.742 46.6172C124.148 46.2578 123.69 45.7422 123.367 45.0703C123.044 44.3984 122.883 43.612 122.883 42.7109C122.883 41.3151 123.232 40.2292 123.93 39.4531C124.628 38.6719 125.596 38.2812 126.836 38.2812C128.034 38.2812 128.984 38.6797 129.688 39.4766C130.396 40.2734 130.75 41.3516 130.75 42.7109ZM124.227 42.7109C124.227 43.8047 124.445 44.638 124.883 45.2109C125.32 45.7839 125.964 46.0703 126.812 46.0703C127.661 46.0703 128.305 45.7865 128.742 45.2188C129.185 44.6458 129.406 43.8099 129.406 42.7109C129.406 41.6224 129.185 40.7969 128.742 40.2344C128.305 39.6667 127.656 39.3828 126.797 39.3828C125.948 39.3828 125.307 39.6615 124.875 40.2188C124.443 40.776 124.227 41.6068 124.227 42.7109ZM141.398 47H140.133V38.8594C140.133 38.1823 140.154 37.5417 140.195 36.9375C140.086 37.0469 139.964 37.1615 139.828 37.2812C139.693 37.401 139.073 37.9089 137.969 38.8047L137.281 37.9141L140.305 35.5781H141.398V47ZM153.258 40.4531C153.258 44.9219 151.529 47.1562 148.07 47.1562C147.466 47.1562 146.987 47.1042 146.633 47V45.8828C147.049 46.0182 147.523 46.0859 148.055 46.0859C149.305 46.0859 150.247 45.7005 150.883 44.9297C151.523 44.1536 151.872 42.9661 151.93 41.3672H151.836C151.549 41.7995 151.169 42.1302 150.695 42.3594C150.221 42.5833 149.688 42.6953 149.094 42.6953C148.083 42.6953 147.281 42.3932 146.688 41.7891C146.094 41.1849 145.797 40.3411 145.797 39.2578C145.797 38.0703 146.128 37.1328 146.789 36.4453C147.456 35.7578 148.331 35.4141 149.414 35.4141C150.19 35.4141 150.867 35.6146 151.445 36.0156C152.029 36.4115 152.477 36.9922 152.789 37.7578C153.102 38.5182 153.258 39.4167 153.258 40.4531ZM149.414 36.5234C148.669 36.5234 148.094 36.763 147.688 37.2422C147.281 37.7214 147.078 38.388 147.078 39.2422C147.078 39.9922 147.266 40.5833 147.641 41.0156C148.016 41.4427 148.586 41.6562 149.352 41.6562C149.826 41.6562 150.26 41.5599 150.656 41.3672C151.057 41.1745 151.372 40.9115 151.602 40.5781C151.831 40.2448 151.945 39.8958 151.945 39.5312C151.945 38.9844 151.839 38.4792 151.625 38.0156C151.411 37.5521 151.112 37.1875 150.727 36.9219C150.346 36.6562 149.909 36.5234 149.414 36.5234ZM155.312 46.1719C155.312 45.8229 155.391 45.5599 155.547 45.3828C155.708 45.2005 155.938 45.1094 156.234 45.1094C156.536 45.1094 156.771 45.2005 156.938 45.3828C157.109 45.5599 157.195 45.8229 157.195 46.1719C157.195 46.5104 157.109 46.7708 156.938 46.9531C156.766 47.1354 156.531 47.2266 156.234 47.2266C155.969 47.2266 155.747 47.1458 155.57 46.9844C155.398 46.8177 155.312 46.5469 155.312 46.1719ZM155.312 39.2734C155.312 38.5703 155.62 38.2188 156.234 38.2188C156.875 38.2188 157.195 38.5703 157.195 39.2734C157.195 39.612 157.109 39.8724 156.938 40.0547C156.766 40.237 156.531 40.3281 156.234 40.3281C155.969 40.3281 155.747 40.2474 155.57 40.0859C155.398 39.9193 155.312 39.6484 155.312 39.2734ZM166.742 41.2734C166.742 43.2474 166.43 44.7214 165.805 45.6953C165.185 46.6693 164.234 47.1562 162.953 47.1562C161.724 47.1562 160.789 46.6589 160.148 45.6641C159.508 44.6641 159.188 43.2005 159.188 41.2734C159.188 39.2839 159.497 37.8073 160.117 36.8438C160.737 35.8802 161.682 35.3984 162.953 35.3984C164.193 35.3984 165.133 35.901 165.773 36.9062C166.419 37.9115 166.742 39.3672 166.742 41.2734ZM160.5 41.2734C160.5 42.9349 160.695 44.1458 161.086 44.9062C161.477 45.6615 162.099 46.0391 162.953 46.0391C163.818 46.0391 164.443 45.6562 164.828 44.8906C165.219 44.1198 165.414 42.9141 165.414 41.2734C165.414 39.6328 165.219 38.4323 164.828 37.6719C164.443 36.9062 163.818 36.5234 162.953 36.5234C162.099 36.5234 161.477 36.901 161.086 37.6562C160.695 38.4062 160.5 39.612 160.5 41.2734ZM175.898 41.2734C175.898 43.2474 175.586 44.7214 174.961 45.6953C174.341 46.6693 173.391 47.1562 172.109 47.1562C170.88 47.1562 169.945 46.6589 169.305 45.6641C168.664 44.6641 168.344 43.2005 168.344 41.2734C168.344 39.2839 168.654 37.8073 169.273 36.8438C169.893 35.8802 170.839 35.3984 172.109 35.3984C173.349 35.3984 174.289 35.901 174.93 36.9062C175.576 37.9115 175.898 39.3672 175.898 41.2734ZM169.656 41.2734C169.656 42.9349 169.852 44.1458 170.242 44.9062C170.633 45.6615 171.255 46.0391 172.109 46.0391C172.974 46.0391 173.599 45.6562 173.984 44.8906C174.375 44.1198 174.57 42.9141 174.57 41.2734C174.57 39.6328 174.375 38.4323 173.984 37.6719C173.599 36.9062 172.974 36.5234 172.109 36.5234C171.255 36.5234 170.633 36.901 170.242 37.6562C169.852 38.4062 169.656 39.612 169.656 41.2734ZM6.46094 58.6016C5.20573 58.6016 4.21354 59.0208 3.48438 59.8594C2.76042 60.6927 2.39844 61.8359 2.39844 63.2891C2.39844 64.7839 2.7474 65.9401 3.44531 66.7578C4.14844 67.5703 5.14844 67.9766 6.44531 67.9766C7.24219 67.9766 8.15104 67.8333 9.17188 67.5469V68.7109C8.38021 69.0078 7.40365 69.1562 6.24219 69.1562C4.5599 69.1562 3.26042 68.6458 2.34375 67.625C1.43229 66.6042 0.976562 65.1536 0.976562 63.2734C0.976562 62.0964 1.19531 61.0651 1.63281 60.1797C2.07552 59.2943 2.71094 58.612 3.53906 58.1328C4.3724 57.6536 5.35156 57.4141 6.47656 57.4141C7.67448 57.4141 8.72135 57.6328 9.61719 58.0703L9.05469 59.2109C8.1901 58.8047 7.32552 58.6016 6.46094 58.6016ZM11.0234 63.8672C11.0234 61.9922 11.2995 60.5312 11.8516 59.4844C12.4036 58.4323 13.2786 57.776 14.4766 57.5156C15.9661 57.1979 17.2786 56.9401 18.4141 56.7422L18.6562 57.8828C16.849 58.1849 15.5573 58.4245 14.7812 58.6016C14.026 58.7734 13.4583 59.1797 13.0781 59.8203C12.7031 60.4609 12.4974 61.3333 12.4609 62.4375H12.5547C12.8776 62 13.2943 61.6562 13.8047 61.4062C14.3151 61.1562 14.849 61.0312 15.4062 61.0312C16.4583 61.0312 17.2786 61.3724 17.8672 62.0547C18.4557 62.737 18.75 63.6823 18.75 64.8906C18.75 66.2292 18.4089 67.276 17.7266 68.0312C17.0443 68.7812 16.0938 69.1562 14.875 69.1562C13.6719 69.1562 12.7292 68.6953 12.0469 67.7734C11.3646 66.8516 11.0234 65.5495 11.0234 63.8672ZM14.9922 68.0703C16.5807 68.0703 17.375 67.0573 17.375 65.0312C17.375 63.099 16.6536 62.1328 15.2109 62.1328C14.8151 62.1328 14.4323 62.2161 14.0625 62.3828C13.6979 62.5443 13.362 62.7604 13.0547 63.0312C12.7526 63.3021 12.5182 63.5807 12.3516 63.8672C12.3516 65.237 12.5677 66.2812 13 67C13.4323 67.7135 14.0964 68.0703 14.9922 68.0703ZM24.4531 65.3047V64.1172H28.2891V65.3047H24.4531ZM41.4297 62.5859C41.4297 63.1432 41.2682 63.5677 40.9453 63.8594C40.6276 64.1458 40.1797 64.3385 39.6016 64.4375V64.5078C40.3307 64.6068 40.862 64.8203 41.1953 65.1484C41.5339 65.4766 41.7031 65.9297 41.7031 66.5078C41.7031 67.3047 41.4089 67.9193 40.8203 68.3516C40.237 68.7839 39.3828 69 38.2578 69H34.4844V60.4375H38.2422C40.3672 60.4375 41.4297 61.1536 41.4297 62.5859ZM40.4062 66.4219C40.4062 65.9583 40.2292 65.6224 39.875 65.4141C39.526 65.2005 38.9453 65.0938 38.1328 65.0938H35.7812V67.9141H38.1641C39.6589 67.9141 40.4062 67.4167 40.4062 66.4219ZM40.1641 62.7109C40.1641 62.2943 40.0026 62 39.6797 61.8281C39.362 61.651 38.8776 61.5625 38.2266 61.5625H35.7812V63.9766H37.9766C38.7786 63.9766 39.3438 63.8776 39.6719 63.6797C40 63.4818 40.1641 63.1589 40.1641 62.7109ZM47.0156 69.1562C45.776 69.1562 44.8151 68.776 44.1328 68.0156C43.4557 67.25 43.1172 66.1693 43.1172 64.7734C43.1172 63.3411 43.4609 62.2344 44.1484 61.4531C44.8411 60.6719 45.8255 60.2812 47.1016 60.2812C47.513 60.2812 47.9245 60.3255 48.3359 60.4141C48.7474 60.5026 49.0703 60.6068 49.3047 60.7266L48.9062 61.8281C48.6198 61.7135 48.3073 61.6198 47.9688 61.5469C47.6302 61.4688 47.3307 61.4297 47.0703 61.4297C45.3307 61.4297 44.4609 62.5391 44.4609 64.7578C44.4609 65.8099 44.6719 66.6172 45.0938 67.1797C45.5208 67.7422 46.151 68.0234 46.9844 68.0234C47.6979 68.0234 48.4297 67.8698 49.1797 67.5625V68.7109C48.6068 69.0078 47.8854 69.1562 47.0156 69.1562ZM62.3203 62.5859C62.3203 63.1432 62.1589 63.5677 61.8359 63.8594C61.5182 64.1458 61.0703 64.3385 60.4922 64.4375V64.5078C61.2214 64.6068 61.7526 64.8203 62.0859 65.1484C62.4245 65.4766 62.5938 65.9297 62.5938 66.5078C62.5938 67.3047 62.2995 67.9193 61.7109 68.3516C61.1276 68.7839 60.2734 69 59.1484 69H55.375V60.4375H59.1328C61.2578 60.4375 62.3203 61.1536 62.3203 62.5859ZM61.2969 66.4219C61.2969 65.9583 61.1198 65.6224 60.7656 65.4141C60.4167 65.2005 59.8359 65.0938 59.0234 65.0938H56.6719V67.9141H59.0547C60.5495 67.9141 61.2969 67.4167 61.2969 66.4219ZM61.0547 62.7109C61.0547 62.2943 60.8932 62 60.5703 61.8281C60.2526 61.651 59.7682 61.5625 59.1172 61.5625H56.6719V63.9766H58.8672C59.6693 63.9766 60.2344 63.8776 60.5625 63.6797C60.8906 63.4818 61.0547 63.1589 61.0547 62.7109ZM65.7812 63.9766H68.1172C69.2057 63.9766 70.0104 64.1797 70.5312 64.5859C71.0573 64.987 71.3203 65.5885 71.3203 66.3906C71.3203 67.25 71.0417 67.901 70.4844 68.3438C69.9323 68.7812 69.1172 69 68.0391 69H64.4844V60.4375H65.7812V63.9766ZM74.0547 69H72.7578V60.4375H74.0547V69ZM65.7812 65.0938V67.9141H67.9766C69.3516 67.9141 70.0391 67.4323 70.0391 66.4688C70.0391 65.9896 69.8802 65.6406 69.5625 65.4219C69.2448 65.2031 68.7031 65.0938 67.9375 65.0938H65.7812ZM78.875 64.6172L75.8984 60.4375H77.375L79.6328 63.7188L81.8828 60.4375H83.3438L80.3672 64.6172L83.5 69H82.0312L79.6328 65.5312L77.2109 69H75.7422L78.875 64.6172ZM92.5938 64.7109C92.5938 66.1068 92.2422 67.1979 91.5391 67.9844C90.8359 68.7656 89.8646 69.1562 88.625 69.1562C87.8594 69.1562 87.1797 68.9766 86.5859 68.6172C85.9922 68.2578 85.5339 67.7422 85.2109 67.0703C84.888 66.3984 84.7266 65.612 84.7266 64.7109C84.7266 63.3151 85.0755 62.2292 85.7734 61.4531C86.4714 60.6719 87.4401 60.2812 88.6797 60.2812C89.8776 60.2812 90.8281 60.6797 91.5312 61.4766C92.2396 62.2734 92.5938 63.3516 92.5938 64.7109ZM86.0703 64.7109C86.0703 65.8047 86.2891 66.638 86.7266 67.2109C87.1641 67.7839 87.8073 68.0703 88.6562 68.0703C89.5052 68.0703 90.1484 67.7865 90.5859 67.2188C91.0286 66.6458 91.25 65.8099 91.25 64.7109C91.25 63.6224 91.0286 62.7969 90.5859 62.2344C90.1484 61.6667 89.5 61.3828 88.6406 61.3828C87.7917 61.3828 87.151 61.6615 86.7188 62.2188C86.2865 62.776 86.0703 63.6068 86.0703 64.7109ZM102.312 71.9609H101.055V69H95.0703V71.9609H93.8203V67.8828H94.4922C95.1901 66.9349 95.737 65.8229 96.1328 64.5469C96.5286 63.2708 96.7344 61.901 96.75 60.4375H101.086V67.8828H102.312V71.9609ZM99.8359 67.8828V61.4609H97.9141C97.8464 62.6172 97.6224 63.7891 97.2422 64.9766C96.8672 66.1589 96.3984 67.1276 95.8359 67.8828H99.8359ZM105.328 60.4375V64.0234H110.125V60.4375H111.422V69H110.125V65.1406H105.328V69H104.031V60.4375H105.328ZM121.562 64.7109C121.562 66.1068 121.211 67.1979 120.508 67.9844C119.805 68.7656 118.833 69.1562 117.594 69.1562C116.828 69.1562 116.148 68.9766 115.555 68.6172C114.961 68.2578 114.503 67.7422 114.18 67.0703C113.857 66.3984 113.695 65.612 113.695 64.7109C113.695 63.3151 114.044 62.2292 114.742 61.4531C115.44 60.6719 116.409 60.2812 117.648 60.2812C118.846 60.2812 119.797 60.6797 120.5 61.4766C121.208 62.2734 121.562 63.3516 121.562 64.7109ZM115.039 64.7109C115.039 65.8047 115.258 66.638 115.695 67.2109C116.133 67.7839 116.776 68.0703 117.625 68.0703C118.474 68.0703 119.117 67.7865 119.555 67.2188C119.997 66.6458 120.219 65.8099 120.219 64.7109C120.219 63.6224 119.997 62.7969 119.555 62.2344C119.117 61.6667 118.469 61.3828 117.609 61.3828C116.76 61.3828 116.12 61.6615 115.688 62.2188C115.255 62.776 115.039 63.6068 115.039 64.7109ZM125.062 60.4375V65.8672L125.008 67.2891L124.984 67.7344L129.617 60.4375H131.234V69H130.023V63.7656L130.047 62.7344L130.086 61.7188L125.461 69H123.844V60.4375H125.062ZM127.508 59.3047C126.544 59.3047 125.841 59.1198 125.398 58.75C124.956 58.375 124.708 57.7604 124.656 56.9062H125.875C125.922 57.4479 126.062 57.8255 126.297 58.0391C126.536 58.2526 126.951 58.3594 127.539 58.3594C128.076 58.3594 128.471 58.2448 128.727 58.0156C128.987 57.7865 129.146 57.4167 129.203 56.9062H130.43C130.367 57.7292 130.104 58.3359 129.641 58.7266C129.177 59.112 128.466 59.3047 127.508 59.3047Z" fill="#636363"/>
</svg>
