<svg width="161" height="54" viewBox="0 0 161 54" fill="none" xmlns="http://www.w3.org/2000/svg">
<path fill-rule="evenodd" clip-rule="evenodd" d="M30.2813 52.779L30.2813 52.7787C30.3828 52.2292 30.4792 51.7065 30.5535 51.1838C31.0597 47.6134 30.5363 44.2103 28.8347 41.0053C27.5215 38.5288 25.7107 36.4536 23.6447 34.58C21.6947 32.8131 19.5359 31.3289 17.3135 29.9258C16.8313 29.6214 16.3479 29.3184 15.8646 29.0154L15.8644 29.0153C14.1882 27.9645 12.5114 26.9135 10.8792 25.7986C5.62564 22.2119 2.396 17.2153 0.77345 11.1452C0.337664 9.46393 0.0849791 7.74096 0.0197531 6.00601C-0.0535459 4.15309 0.0772916 2.29776 0.409925 0.473102C0.430551 0.356108 0.458048 0.240821 0.487268 0.125535C0.503634 0.0820413 0.523762 0.0400391 0.547427 0C0.562515 0.0105834 0.5774 0.0193448 0.59138 0.0275736L0.591386 0.0275764C0.618014 0.043251 0.641358 0.056993 0.656573 0.0777116C1.74372 1.82409 3.2726 3.10762 5.00343 4.17679C6.69302 5.2195 8.49776 6.04358 10.3386 6.79337C11.3367 7.20057 12.3377 7.60119 13.3388 8.00183L13.3388 8.00185C14.7038 8.54815 16.069 9.09449 17.427 9.6576C19.8685 10.6704 22.2327 11.8352 24.4397 13.3015C28.8579 16.2366 31.534 20.3391 32.7157 25.4459C33.0948 27.0798 33.3113 28.7468 33.362 30.4229C33.3685 30.5061 33.3515 30.5895 33.313 30.6637C33.2939 30.6212 33.2742 30.5786 33.2545 30.5362C33.215 30.4507 33.1756 30.3655 33.1411 30.2811C32.1494 27.7619 31.0012 25.3187 29.5428 23.0283C28.1935 20.9079 26.6208 18.9745 24.6588 17.3792C22.5963 15.7037 20.2587 14.5996 17.6246 14.1632C17.1042 14.0772 16.5757 14.0418 16.0473 14.0065L16.0471 14.0065C15.846 13.993 15.6449 13.9796 15.4443 13.9633C15.2914 13.9667 15.1388 13.9809 14.988 14.006C15.0582 14.0591 15.1169 14.1049 15.1686 14.1452L15.1686 14.1452C15.2617 14.2178 15.3322 14.2728 15.4074 14.3212C18.0221 15.9952 20.418 17.9848 22.5404 20.2443C27.1709 25.188 30.3833 30.9011 31.968 37.4852C32.3118 38.9285 32.5696 40.3888 32.6427 41.8764C32.6482 41.9922 32.6539 42.1081 32.6595 42.224V42.224C32.7062 43.1745 32.7529 44.1272 32.7054 45.0771C32.5593 48.0045 31.9113 50.7987 30.3077 53.3154C30.2779 53.363 30.2471 53.4092 30.195 53.4873L30.1949 53.4875L30.1367 53.575C30.1848 53.3018 30.2336 53.0374 30.2813 52.779ZM67.6891 50.871C66.4791 50.871 65.6431 50.629 65.1811 50.145C64.7191 49.683 64.4771 49.078 64.4551 48.33C64.4551 47.692 64.5761 46.933 64.8181 46.053C65.0821 45.151 65.3461 44.293 65.6101 43.479C66.3141 41.389 67.0511 39.354 67.8211 37.374C68.6131 35.394 69.3831 33.524 70.1311 31.764C70.9011 29.982 71.5831 28.365 72.1771 26.913C70.6811 26.935 69.3831 26.979 68.2831 27.045C67.2051 27.111 66.2151 27.199 65.3131 27.309C64.4111 27.397 63.4761 27.529 62.5081 27.705C62.6181 26.781 63.0471 26.077 63.7951 25.593C64.5651 25.087 65.5881 24.735 66.8641 24.537C68.1401 24.339 69.6031 24.24 71.2531 24.24C72.5511 24.24 73.7281 24.284 74.7841 24.372C75.8621 24.438 76.8961 24.526 77.8861 24.636C79.2721 24.768 80.3721 24.856 81.1861 24.9C82.0221 24.944 82.6161 24.966 82.9681 24.966C82.3081 25.582 81.4721 26.033 80.4601 26.319C79.4701 26.583 78.4251 26.748 77.3251 26.814C76.2251 26.88 75.1801 26.913 74.1901 26.913C73.1341 29.509 72.1661 32.204 71.2861 34.998C70.4061 37.792 69.5921 40.553 68.8441 43.281C68.5581 44.337 68.3161 45.239 68.1181 45.987C67.9421 46.713 67.8101 47.384 67.7221 48C67.6341 48.594 67.5901 49.232 67.5901 49.914V50.277C67.6121 50.431 67.6451 50.629 67.6891 50.871ZM78.2656 49.452C76.8576 49.452 75.7686 49.067 74.9986 48.297C74.2506 47.549 73.8766 46.603 73.8766 45.459C73.8766 44.491 74.1186 43.468 74.6026 42.39C75.1086 41.29 75.7796 40.267 76.6156 39.321C77.4516 38.353 78.3756 37.572 79.3876 36.978C80.3996 36.384 81.4116 36.087 82.4236 36.087C82.9956 36.087 83.5346 36.241 84.0406 36.549C84.5686 36.835 84.8326 37.418 84.8326 38.298C84.8326 39.134 84.5906 39.915 84.1066 40.641C83.6226 41.367 82.9736 42.016 82.1596 42.588C81.3456 43.16 80.4436 43.633 79.4536 44.007C78.4856 44.359 77.5066 44.59 76.5166 44.7C76.4946 44.788 76.4726 44.887 76.4506 44.997V45.459C76.4506 45.569 76.4616 45.767 76.4836 46.053C76.5276 46.317 76.6266 46.603 76.7806 46.911C76.9346 47.219 77.1876 47.483 77.5396 47.703C77.8916 47.923 78.3756 48.033 78.9916 48.033C79.9156 48.033 80.8396 47.78 81.7636 47.274C82.7096 46.746 83.5896 46.053 84.4036 45.195C84.7579 44.8313 85.0866 44.4498 85.3896 44.0506C85.7384 43.1787 86.2108 42.3172 86.8066 41.466C87.4226 40.586 88.1266 39.794 88.9186 39.09C89.7106 38.364 90.5576 37.781 91.4596 37.341C92.3616 36.901 93.2636 36.681 94.1656 36.681C95.1116 36.681 95.9146 36.923 96.5746 37.407C97.2346 37.891 97.5646 38.529 97.5646 39.321C97.5646 39.915 97.3556 40.344 96.9376 40.608C96.5196 40.872 96.0246 40.949 95.4526 40.839C95.4966 40.641 95.5296 40.443 95.5516 40.245C95.5956 40.047 95.6176 39.838 95.6176 39.618C95.6176 39.178 95.5296 38.782 95.3536 38.43C95.1776 38.078 94.8036 37.902 94.2316 37.902C93.6156 37.902 92.9886 38.111 92.3506 38.529C91.7126 38.947 91.0966 39.497 90.5026 40.179C89.9306 40.839 89.4136 41.576 88.9516 42.39C88.4896 43.182 88.1266 43.963 87.8626 44.733C87.5986 45.503 87.4666 46.196 87.4666 46.812C87.4666 47.516 87.7196 47.868 88.2256 47.868C88.7316 47.868 89.2926 47.626 89.9086 47.142C90.5246 46.636 91.1406 46.009 91.7566 45.261C92.3946 44.513 92.9996 43.754 93.5716 42.984C94.1436 42.192 94.6386 41.521 95.0566 40.971C95.1226 40.861 95.2106 40.806 95.3206 40.806C95.4086 40.828 95.5736 40.883 95.8156 40.971C96.0796 41.037 96.3216 41.147 96.5416 41.301C96.7616 41.455 96.8716 41.653 96.8716 41.895C96.8716 42.181 96.7176 42.577 96.4096 43.083C96.1016 43.567 95.7826 44.095 95.4526 44.667C95.1446 45.239 94.9906 45.767 94.9906 46.251C94.9906 46.537 95.0676 46.812 95.2216 47.076C95.3756 47.318 95.6286 47.439 95.9806 47.439C96.5086 47.439 97.2456 47.054 98.1916 46.284C99.1596 45.492 100.139 44.161 101.129 42.291L101.756 42.918C100.942 44.722 99.9296 46.185 98.7196 47.307C97.5096 48.429 96.2886 48.99 95.0566 48.99C94.1546 48.99 93.4836 48.704 93.0436 48.132C92.6036 47.56 92.3616 46.944 92.3176 46.284V46.119C91.4376 47.175 90.6236 48.011 89.8756 48.627C89.1496 49.243 88.3686 49.551 87.5326 49.551C86.8066 49.551 86.1796 49.309 85.6516 48.825C85.1016 48.341 84.8266 47.615 84.8266 46.647C84.8266 46.5366 84.8302 46.4249 84.8375 46.3119L84.8326 46.317C83.9086 47.307 82.8746 48.077 81.7306 48.627C80.6086 49.177 79.4536 49.452 78.2656 49.452ZM76.8796 43.479C77.4516 43.413 78.0896 43.215 78.7936 42.885C79.4976 42.555 80.1686 42.137 80.8066 41.631C81.4666 41.125 82.0056 40.575 82.4236 39.981C82.8416 39.365 83.0506 38.749 83.0506 38.133C83.0506 37.891 83.0066 37.726 82.9186 37.638C82.8306 37.55 82.6876 37.506 82.4896 37.506C81.9836 37.506 81.4556 37.693 80.9056 38.067C80.3556 38.419 79.8166 38.892 79.2886 39.486C78.7606 40.058 78.2876 40.696 77.8696 41.4C77.4516 42.104 77.1216 42.797 76.8796 43.479ZM111.923 49.518C110.955 49.518 110.174 49.232 109.58 48.66C108.986 48.088 108.689 47.219 108.689 46.053C108.689 45.151 108.854 44.029 109.184 42.687C109.536 41.345 109.976 39.959 110.504 38.529C110.35 38.485 110.163 38.452 109.943 38.43C109.745 38.386 109.547 38.32 109.349 38.232V37.209C109.701 37.253 109.987 37.286 110.207 37.308L110.933 37.374C111.395 36.208 111.89 35.086 112.418 34.008C112.968 32.908 113.507 31.929 114.035 31.071C114.585 30.213 115.102 29.542 115.586 29.058C116.07 28.552 116.499 28.299 116.873 28.299C117.093 28.299 117.302 28.387 117.5 28.563C117.698 28.717 117.797 28.948 117.797 29.256C117.797 29.696 117.566 30.323 117.104 31.137C116.664 31.951 116.114 32.908 115.454 34.008C114.794 35.086 114.156 36.241 113.54 37.473H114.563C115.531 37.473 116.4 37.462 117.17 37.44C117.962 37.396 118.765 37.33 119.579 37.242V38.331C118.369 38.441 117.258 38.529 116.246 38.595C115.234 38.661 114.266 38.705 113.342 38.727H112.946C112.484 39.805 112.077 40.916 111.725 42.06C111.395 43.182 111.23 44.282 111.23 45.36C111.23 46.262 111.373 46.9 111.659 47.274C111.945 47.648 112.396 47.835 113.012 47.835C114.112 47.835 115.234 47.34 116.378 46.35C117.148 45.6814 117.852 44.8591 118.487 43.8832C118.657 43.1916 118.879 42.4738 119.153 41.73C119.483 40.872 119.857 40.069 120.275 39.321C120.693 38.573 121.144 37.968 121.628 37.506C122.112 37.022 122.596 36.78 123.08 36.78C123.344 36.78 123.575 36.868 123.773 37.044C123.971 37.198 124.07 37.429 124.07 37.737C124.07 38.023 123.894 38.452 123.542 39.024C123.212 39.596 122.816 40.256 122.354 41.004C121.914 41.752 121.518 42.533 121.166 43.347C120.836 44.139 120.671 44.898 120.671 45.624C120.671 46.328 120.792 46.801 121.034 47.043C121.298 47.263 121.672 47.373 122.156 47.373C122.904 47.373 123.718 46.999 124.598 46.251C125.139 45.791 125.693 45.1187 126.259 44.2343C126.437 43.5124 126.622 42.7766 126.813 42.027C127.055 41.081 127.264 40.256 127.44 39.552C127.506 39.31 127.748 39.101 128.166 38.925C128.584 38.727 128.947 38.628 129.255 38.628C129.563 38.628 129.827 38.727 130.047 38.925C130.267 39.123 130.377 39.387 130.377 39.717C130.377 39.937 130.333 40.256 130.245 40.674C130.157 41.092 130.047 41.565 129.915 42.093C130.531 41.257 131.191 40.454 131.895 39.684C132.621 38.914 133.358 38.287 134.106 37.803C134.876 37.297 135.624 37.044 136.35 37.044C137.164 37.044 137.714 37.341 138 37.935C138.286 38.507 138.429 39.134 138.429 39.816C138.429 40.256 138.374 40.674 138.264 41.07C138.176 41.444 138.044 41.906 137.868 42.456C138.506 41.532 139.221 40.74 140.013 40.08C140.827 39.398 141.707 39.057 142.653 39.057C143.511 39.057 144.105 39.321 144.435 39.849C144.765 40.355 144.93 40.916 144.93 41.532C144.93 42.104 144.831 42.709 144.633 43.347C144.457 43.963 144.27 44.557 144.072 45.129C143.896 45.679 143.808 46.152 143.808 46.548C143.808 46.768 143.863 46.977 143.973 47.175C144.083 47.351 144.303 47.439 144.633 47.439C145.227 47.439 145.799 47.164 146.349 46.614C146.85 46.113 147.315 45.5115 147.743 44.8097C147.826 44.0365 148.057 43.2299 148.434 42.39C148.94 41.29 149.611 40.267 150.447 39.321C151.283 38.353 152.207 37.572 153.219 36.978C154.231 36.384 155.243 36.087 156.255 36.087C156.827 36.087 157.366 36.241 157.872 36.549C158.4 36.835 158.664 37.418 158.664 38.298C158.664 39.134 158.422 39.915 157.938 40.641C157.454 41.367 156.805 42.016 155.991 42.588C155.177 43.16 154.275 43.633 153.285 44.007C152.317 44.359 151.338 44.59 150.348 44.7C150.326 44.788 150.304 44.887 150.282 44.997V45.459C150.282 45.569 150.293 45.767 150.315 46.053C150.359 46.317 150.458 46.603 150.612 46.911C150.766 47.219 151.019 47.483 151.371 47.703C151.723 47.923 152.207 48.033 152.823 48.033C153.747 48.033 154.671 47.78 155.595 47.274C156.541 46.746 157.421 46.053 158.235 45.195C159.071 44.337 159.764 43.38 160.314 42.324L160.974 42.852C160.38 44.172 159.61 45.327 158.664 46.317C157.74 47.307 156.706 48.077 155.562 48.627C154.44 49.177 153.285 49.452 152.097 49.452C150.689 49.452 149.6 49.067 148.83 48.297C148.309 47.7768 147.97 47.1609 147.812 46.4492C147.367 47.0722 146.869 47.6111 146.316 48.066C145.568 48.704 144.71 49.023 143.742 49.023C142.884 49.023 142.246 48.77 141.828 48.264C141.41 47.758 141.201 47.153 141.201 46.449C141.201 45.943 141.278 45.437 141.432 44.931C141.586 44.425 141.74 43.93 141.894 43.446C142.048 42.94 142.125 42.489 142.125 42.093C142.125 41.719 142.048 41.466 141.894 41.334C141.762 41.18 141.586 41.103 141.366 41.103C140.86 41.103 140.266 41.488 139.584 42.258C138.924 43.028 138.099 44.15 137.109 45.624C136.757 46.152 136.427 46.713 136.119 47.307C135.811 47.879 135.536 48.363 135.294 48.759C135.096 48.759 134.832 48.726 134.502 48.66C134.194 48.594 133.919 48.495 133.677 48.363C133.435 48.253 133.314 48.099 133.314 47.901C133.314 47.703 133.424 47.318 133.644 46.746C133.864 46.174 134.117 45.514 134.403 44.766C134.689 43.996 134.942 43.248 135.162 42.522C135.382 41.774 135.492 41.147 135.492 40.641C135.492 39.981 135.261 39.651 134.799 39.651C134.337 39.651 133.776 39.926 133.116 40.476C132.478 41.026 131.796 41.752 131.07 42.654C130.366 43.534 129.695 44.524 129.057 45.624C128.441 46.702 127.935 47.791 127.539 48.891C127.297 48.891 127 48.836 126.648 48.726C126.296 48.638 125.988 48.517 125.724 48.363C125.46 48.231 125.328 48.11 125.328 48C125.328 47.978 125.405 47.67 125.559 47.076C125.572 47.0239 125.586 46.9709 125.599 46.9168C125.628 46.7996 125.659 46.6776 125.69 46.5508C125.436 46.8481 125.171 47.1222 124.895 47.373C123.707 48.451 122.431 48.99 121.067 48.99C120.099 48.99 119.373 48.704 118.889 48.132C118.405 47.56 118.163 46.867 118.163 46.053C118.163 45.8902 118.172 45.7138 118.19 45.5237C118.042 45.7262 117.889 45.9247 117.731 46.119C116.895 47.175 115.982 48 114.992 48.594C114.002 49.21 112.979 49.518 111.923 49.518ZM124.961 34.107C124.543 34.107 124.158 34.008 123.806 33.81C123.476 33.59 123.311 33.26 123.311 32.82C123.311 32.292 123.597 31.841 124.169 31.467C124.741 31.093 125.335 30.906 125.951 30.906C126.347 30.906 126.677 30.994 126.941 31.17C127.227 31.346 127.37 31.665 127.37 32.127C127.37 32.589 127.117 33.04 126.611 33.48C126.105 33.898 125.555 34.107 124.961 34.107ZM150.711 43.479C151.283 43.413 151.921 43.215 152.625 42.885C153.329 42.555 154 42.137 154.638 41.631C155.298 41.125 155.837 40.575 156.255 39.981C156.673 39.365 156.882 38.749 156.882 38.133C156.882 37.891 156.838 37.726 156.75 37.638C156.662 37.55 156.519 37.506 156.321 37.506C155.815 37.506 155.287 37.693 154.737 38.067C154.187 38.419 153.648 38.892 153.12 39.486C152.592 40.058 152.119 40.696 151.701 41.4C151.283 42.104 150.953 42.797 150.711 43.479ZM46.6759 16.9904C46.7811 16.8358 46.8895 16.6765 46.9989 16.5079C46.8457 16.506 46.6926 16.5154 46.5409 16.5361C46.3816 16.5724 46.2217 16.6068 46.0618 16.6413C45.6238 16.7355 45.1858 16.8298 44.7602 16.9631C41.907 17.8546 39.7688 19.5856 38.5493 22.3371C37.6478 24.3722 37.4604 26.5097 37.7466 28.6993C37.7753 28.9199 37.8106 29.1397 37.846 29.3596C37.8627 29.4631 37.8793 29.5666 37.8953 29.6702C38.0545 28.8826 38.2917 28.1126 38.6035 27.3713C39.0581 26.3346 39.5634 25.5336 39.9355 25.3218C39.9102 25.4947 39.885 25.6634 39.8602 25.8295C39.816 26.1261 39.7729 26.4145 39.7327 26.7035C39.541 28.0767 39.4903 29.4516 39.7748 30.818C39.8986 31.4106 40.0739 31.9896 40.4245 32.5575C40.5463 32.5087 40.6672 32.4623 40.7867 32.4164C41.0348 32.3211 41.277 32.2281 41.5091 32.1203C43.3138 31.2928 44.5015 29.9495 44.963 28.0067C45.1513 27.1975 45.2533 26.3708 45.2672 25.5404C45.2811 24.9411 45.29 24.3416 45.2989 23.7422C45.3143 22.7103 45.3296 21.6786 45.3704 20.648C45.3981 19.6944 45.6447 18.7597 46.0914 17.9153C46.2604 17.6012 46.4614 17.3057 46.6759 16.9904Z" fill="white"/>
</svg>

