<svg width="149" height="54" viewBox="0 0 149 54" fill="none" xmlns="http://www.w3.org/2000/svg">
<path fill-rule="evenodd" clip-rule="evenodd" d="M30.1367 53.575C30.1848 53.3018 30.2336 53.0373 30.2813 52.7787C30.3828 52.2292 30.4792 51.7065 30.5535 51.1838C31.0597 47.6134 30.5363 44.2103 28.8347 41.0053C27.5215 38.5288 25.7107 36.4536 23.6447 34.58C21.6947 32.8131 19.5359 31.3289 17.3135 29.9258C16.8314 29.6214 16.3481 29.3185 15.8648 29.0155L15.8646 29.0154L15.8645 29.0153C14.1882 27.9645 12.5114 26.9135 10.8792 25.7986C5.62564 22.2119 2.396 17.2153 0.773451 11.1452C0.337664 9.46393 0.0849792 7.74096 0.019753 6.00601C-0.0535458 4.15309 0.0772914 2.29776 0.409925 0.473102C0.430551 0.356108 0.458048 0.240821 0.487268 0.125534C0.503633 0.0820411 0.523762 0.0400391 0.547427 0C0.562516 0.0105832 0.5774 0.0193449 0.59138 0.0275739C0.61801 0.0432492 0.641357 0.0569919 0.656573 0.0777117C1.74372 1.82409 3.2726 3.10762 5.00343 4.17679C6.69302 5.2195 8.49776 6.04358 10.3386 6.79337C11.3367 7.20056 12.3377 7.60117 13.3387 8.0018L13.3388 8.00183C14.7038 8.54814 16.069 9.09449 17.427 9.6576C19.8685 10.6704 22.2327 11.8352 24.4397 13.3015C28.8579 16.2366 31.534 20.3391 32.7157 25.4459C33.0948 27.0798 33.3113 28.7468 33.362 30.4229C33.3685 30.5061 33.3515 30.5895 33.313 30.6637C33.2939 30.6212 33.2742 30.5787 33.2546 30.5363C33.215 30.4508 33.1756 30.3656 33.1411 30.2811C32.1494 27.7619 31.0012 25.3187 29.5428 23.0283C28.1935 20.9079 26.6208 18.9745 24.6588 17.3792C22.5963 15.7037 20.2587 14.5996 17.6246 14.1632C17.1042 14.0772 16.5757 14.0418 16.0473 14.0065L16.0472 14.0065C15.8461 13.993 15.645 13.9796 15.4443 13.9633C15.2914 13.9667 15.1388 13.9809 14.988 14.006C15.0582 14.0591 15.1168 14.1048 15.1685 14.1451L15.1686 14.1452L15.1686 14.1452C15.2617 14.2178 15.3322 14.2729 15.4074 14.3212C18.0221 15.9952 20.418 17.9848 22.5404 20.2443C27.1709 25.188 30.3833 30.9011 31.968 37.4852C32.3118 38.9285 32.5696 40.3888 32.6427 41.8764C32.6481 41.9912 32.6538 42.1061 32.6594 42.221L32.6595 42.2239C32.7062 43.1745 32.7529 44.1271 32.7054 45.0771C32.5593 48.0045 31.9113 50.7987 30.3077 53.3154C30.2778 53.3631 30.247 53.4093 30.1949 53.4876L30.1367 53.575ZM55.689 53.871C54.479 53.871 53.643 53.629 53.181 53.145C52.719 52.683 52.477 52.078 52.455 51.33C52.455 50.692 52.576 49.933 52.818 49.053C53.082 48.151 53.346 47.293 53.61 46.479C54.138 44.917 54.688 43.377 55.26 41.859C55.832 40.341 56.404 38.878 56.976 37.47C57.57 36.062 58.131 34.72 58.659 33.444C59.209 32.168 59.715 30.991 60.177 29.913C58.681 29.935 57.383 29.979 56.283 30.045C55.205 30.111 54.215 30.199 53.313 30.309C52.411 30.397 51.476 30.529 50.508 30.705C50.618 29.781 51.047 29.077 51.795 28.593C52.565 28.087 53.588 27.735 54.864 27.537C56.14 27.339 57.603 27.24 59.253 27.24C60.111 27.24 60.914 27.262 61.662 27.306C62.432 27.328 63.158 27.372 63.84 27.438C64.544 27.504 65.226 27.57 65.886 27.636C67.272 27.768 68.372 27.856 69.186 27.9C70.022 27.944 70.616 27.966 70.968 27.966C70.308 28.582 69.472 29.033 68.46 29.319C67.47 29.583 66.425 29.748 65.325 29.814C64.225 29.88 63.18 29.913 62.19 29.913C61.134 32.509 60.166 35.204 59.286 37.998C58.406 40.792 57.592 43.553 56.844 46.281C56.558 47.337 56.316 48.239 56.118 48.987C55.942 49.713 55.81 50.384 55.722 51C55.634 51.594 55.59 52.232 55.59 52.914V53.277C55.612 53.431 55.645 53.629 55.689 53.871ZM66.2655 52.452C64.8575 52.452 63.7685 52.067 62.9985 51.297C62.2505 50.549 61.8765 49.603 61.8765 48.459C61.8765 47.491 62.1185 46.468 62.6025 45.39C63.1085 44.29 63.7795 43.267 64.6155 42.321C65.4515 41.353 66.3755 40.572 67.3875 39.978C68.3995 39.384 69.4115 39.087 70.4235 39.087C70.9955 39.087 71.5345 39.241 72.0405 39.549C72.5685 39.835 72.8325 40.418 72.8325 41.298C72.8325 42.134 72.5905 42.915 72.1065 43.641C71.6225 44.367 70.9735 45.016 70.1595 45.588C69.3455 46.16 68.4435 46.633 67.4535 47.007C66.4855 47.359 65.5065 47.59 64.5165 47.7C64.4945 47.788 64.4725 47.887 64.4505 47.997V48.459C64.4505 48.569 64.4615 48.767 64.4835 49.053C64.5275 49.317 64.6265 49.603 64.7805 49.911C64.9345 50.219 65.1875 50.483 65.5395 50.703C65.8915 50.923 66.3755 51.033 66.9915 51.033C67.9155 51.033 68.8395 50.78 69.7635 50.274C70.7095 49.746 71.5895 49.053 72.4035 48.195C72.7579 47.8313 73.0865 47.4498 73.3895 47.0506C73.7384 46.1787 74.2107 45.3172 74.8066 44.466C75.4226 43.586 76.1266 42.794 76.9186 42.09C77.7106 41.364 78.5576 40.781 79.4596 40.341C80.3616 39.901 81.2636 39.681 82.1656 39.681C83.1116 39.681 83.9146 39.923 84.5746 40.407C85.2346 40.891 85.5646 41.529 85.5646 42.321C85.5646 42.915 85.3556 43.344 84.9376 43.608C84.5196 43.872 84.0246 43.949 83.4526 43.839C83.4966 43.641 83.5296 43.443 83.5516 43.245C83.5956 43.047 83.6176 42.838 83.6176 42.618C83.6176 42.178 83.5296 41.782 83.3536 41.43C83.1776 41.078 82.8036 40.902 82.2316 40.902C81.6156 40.902 80.9886 41.111 80.3506 41.529C79.7126 41.947 79.0966 42.497 78.5026 43.179C77.9306 43.839 77.4136 44.576 76.9516 45.39C76.4896 46.182 76.1266 46.963 75.8626 47.733C75.5986 48.503 75.4666 49.196 75.4666 49.812C75.4666 50.516 75.7196 50.868 76.2256 50.868C76.7316 50.868 77.2926 50.626 77.9086 50.142C78.5246 49.636 79.1406 49.009 79.7566 48.261C80.3946 47.513 80.9996 46.754 81.5716 45.984C82.1436 45.192 82.6386 44.521 83.0566 43.971C83.1226 43.861 83.2106 43.806 83.3206 43.806C83.4086 43.828 83.5736 43.883 83.8156 43.971C84.0796 44.037 84.3216 44.147 84.5416 44.301C84.7616 44.455 84.8716 44.653 84.8716 44.895C84.8716 45.115 84.7726 45.401 84.5746 45.753C84.3986 46.083 84.1786 46.457 83.9146 46.875C83.6726 47.271 83.4526 47.678 83.2546 48.096C83.0786 48.492 82.9906 48.877 82.9906 49.251C82.9906 49.537 83.0676 49.812 83.2216 50.076C83.3756 50.318 83.6286 50.439 83.9806 50.439C84.5086 50.439 85.2456 50.054 86.1916 49.284C87.1596 48.492 88.1386 47.161 89.1286 45.291L89.7556 45.918C89.2276 47.106 88.5896 48.162 87.8416 49.086C87.1156 49.988 86.3456 50.692 85.5316 51.198C84.7176 51.726 83.8926 51.99 83.0566 51.99C82.1546 51.99 81.4836 51.704 81.0436 51.132C80.6036 50.56 80.3616 49.944 80.3176 49.284V49.185V49.119C79.4376 50.175 78.6236 51.011 77.8756 51.627C77.1496 52.243 76.3686 52.551 75.5326 52.551C74.8066 52.551 74.1796 52.309 73.6516 51.825C73.1016 51.341 72.8266 50.615 72.8266 49.647C72.8266 49.5366 72.8302 49.4249 72.8374 49.3119L72.8325 49.317C71.9085 50.307 70.8745 51.077 69.7305 51.627C68.6085 52.177 67.4535 52.452 66.2655 52.452ZM64.8795 46.479C65.4515 46.413 66.0895 46.215 66.7935 45.885C67.4975 45.555 68.1685 45.137 68.8065 44.631C69.4665 44.125 70.0055 43.575 70.4235 42.981C70.8415 42.365 71.0505 41.749 71.0505 41.133C71.0505 40.891 71.0065 40.726 70.9185 40.638C70.8305 40.55 70.6875 40.506 70.4895 40.506C69.9835 40.506 69.4555 40.693 68.9055 41.067C68.3555 41.419 67.8165 41.892 67.2885 42.486C66.7605 43.058 66.2875 43.696 65.8695 44.4C65.4515 45.104 65.1215 45.797 64.8795 46.479ZM99.9229 52.518C98.9549 52.518 98.1739 52.232 97.5799 51.66C96.9859 51.088 96.6889 50.219 96.6889 49.053C96.6889 48.151 96.8539 47.029 97.1839 45.687C97.5359 44.345 97.9759 42.959 98.5039 41.529C98.3499 41.485 98.1629 41.452 97.9429 41.43C97.7449 41.386 97.5469 41.32 97.3489 41.232V40.209C97.7009 40.253 97.9869 40.286 98.2069 40.308L98.9329 40.374C99.3949 39.208 99.8899 38.086 100.418 37.008C100.968 35.908 101.507 34.929 102.035 34.071C102.585 33.213 103.102 32.542 103.586 32.058C104.07 31.552 104.499 31.299 104.873 31.299C105.093 31.299 105.302 31.387 105.5 31.563C105.698 31.717 105.797 31.948 105.797 32.256C105.797 32.696 105.566 33.323 105.104 34.137C104.664 34.951 104.114 35.908 103.454 37.008C102.794 38.086 102.156 39.241 101.54 40.473H102.068H102.563C103.531 40.473 104.4 40.462 105.17 40.44C105.962 40.396 106.765 40.33 107.579 40.242V41.331C106.369 41.441 105.258 41.529 104.246 41.595C103.234 41.661 102.266 41.705 101.342 41.727H101.144H100.946C100.484 42.805 100.077 43.916 99.7249 45.06C99.3949 46.182 99.2299 47.282 99.2299 48.36C99.2299 49.262 99.3729 49.9 99.6589 50.274C99.9449 50.648 100.396 50.835 101.012 50.835C102.112 50.835 103.234 50.34 104.378 49.35C105.148 48.6814 105.851 47.8591 106.487 46.8832C106.657 46.1916 106.879 45.4738 107.153 44.73C107.483 43.872 107.857 43.069 108.275 42.321C108.693 41.573 109.144 40.968 109.628 40.506C110.112 40.022 110.596 39.78 111.08 39.78C111.344 39.78 111.575 39.868 111.773 40.044C111.971 40.198 112.07 40.429 112.07 40.737C112.07 41.023 111.894 41.452 111.542 42.024C111.212 42.596 110.816 43.256 110.354 44.004C109.914 44.752 109.518 45.533 109.166 46.347C108.836 47.139 108.671 47.898 108.671 48.624C108.671 49.328 108.792 49.801 109.034 50.043C109.298 50.263 109.672 50.373 110.156 50.373C110.904 50.373 111.718 49.999 112.598 49.251C113.139 48.791 113.693 48.1187 114.259 47.2343C114.437 46.5123 114.622 45.7766 114.813 45.027C115.055 44.081 115.264 43.256 115.44 42.552C115.506 42.31 115.748 42.101 116.166 41.925C116.584 41.727 116.947 41.628 117.255 41.628C117.563 41.628 117.827 41.727 118.047 41.925C118.267 42.123 118.377 42.387 118.377 42.717C118.377 42.937 118.333 43.256 118.245 43.674C118.157 44.092 118.047 44.565 117.915 45.093C118.377 44.477 118.861 43.872 119.367 43.278C119.895 42.662 120.434 42.112 120.984 41.628C121.556 41.144 122.117 40.759 122.667 40.473C123.239 40.187 123.8 40.044 124.35 40.044C125.164 40.044 125.714 40.341 126 40.935C126.286 41.507 126.429 42.134 126.429 42.816C126.429 43.102 126.407 43.388 126.363 43.674C126.319 43.938 126.253 44.213 126.165 44.499C126.099 44.763 126 45.082 125.868 45.456C126.286 44.84 126.737 44.279 127.221 43.773C127.727 43.245 128.266 42.827 128.838 42.519C129.41 42.211 130.015 42.057 130.653 42.057C131.511 42.057 132.105 42.321 132.435 42.849C132.765 43.355 132.93 43.916 132.93 44.532C132.93 45.104 132.831 45.709 132.633 46.347C132.457 46.963 132.27 47.557 132.072 48.129C131.896 48.679 131.808 49.152 131.808 49.548C131.808 49.768 131.863 49.977 131.973 50.175C132.083 50.351 132.303 50.439 132.633 50.439C133.227 50.439 133.799 50.164 134.349 49.614C134.85 49.113 135.315 48.5115 135.743 47.8097C135.826 47.0365 136.056 46.2299 136.434 45.39C136.94 44.29 137.611 43.267 138.447 42.321C139.283 41.353 140.207 40.572 141.219 39.978C142.231 39.384 143.243 39.087 144.255 39.087C144.827 39.087 145.366 39.241 145.872 39.549C146.4 39.835 146.664 40.418 146.664 41.298C146.664 42.134 146.422 42.915 145.938 43.641C145.454 44.367 144.805 45.016 143.991 45.588C143.177 46.16 142.275 46.633 141.285 47.007C140.317 47.359 139.338 47.59 138.348 47.7C138.326 47.788 138.304 47.887 138.282 47.997V48.459C138.282 48.569 138.293 48.767 138.315 49.053C138.359 49.317 138.458 49.603 138.612 49.911C138.766 50.219 139.019 50.483 139.371 50.703C139.723 50.923 140.207 51.033 140.823 51.033C141.747 51.033 142.671 50.78 143.595 50.274C144.541 49.746 145.421 49.053 146.235 48.195C147.071 47.337 147.764 46.38 148.314 45.324L148.974 45.852C148.38 47.172 147.61 48.327 146.664 49.317C145.74 50.307 144.706 51.077 143.562 51.627C142.44 52.177 141.285 52.452 140.097 52.452C138.689 52.452 137.6 52.067 136.83 51.297C136.309 50.7768 135.97 50.1609 135.812 49.4492C135.367 50.0722 134.869 50.6111 134.316 51.066C133.568 51.704 132.71 52.023 131.742 52.023C130.884 52.023 130.246 51.77 129.828 51.264C129.41 50.758 129.201 50.153 129.201 49.449C129.201 48.943 129.278 48.437 129.432 47.931C129.586 47.425 129.74 46.93 129.894 46.446C130.048 45.94 130.125 45.489 130.125 45.093C130.125 44.719 130.048 44.466 129.894 44.334C129.762 44.18 129.586 44.103 129.366 44.103C128.86 44.103 128.266 44.488 127.584 45.258C126.924 46.028 126.099 47.15 125.109 48.624C124.757 49.152 124.427 49.713 124.119 50.307C123.811 50.879 123.536 51.363 123.294 51.759C123.096 51.759 122.832 51.726 122.502 51.66C122.194 51.594 121.919 51.495 121.677 51.363C121.435 51.253 121.314 51.099 121.314 50.901C121.314 50.703 121.424 50.318 121.644 49.746C121.864 49.174 122.117 48.514 122.403 47.766C122.689 46.996 122.942 46.248 123.162 45.522C123.382 44.774 123.492 44.147 123.492 43.641C123.492 43.333 123.437 43.091 123.327 42.915C123.217 42.739 123.041 42.651 122.799 42.651C122.337 42.651 121.776 42.926 121.116 43.476C120.478 44.026 119.796 44.752 119.07 45.654C118.366 46.534 117.695 47.524 117.057 48.624C116.441 49.702 115.935 50.791 115.539 51.891C115.297 51.891 115 51.836 114.648 51.726C114.296 51.638 113.988 51.517 113.724 51.363C113.46 51.231 113.328 51.11 113.328 51C113.328 50.978 113.405 50.67 113.559 50.076C113.588 49.9612 113.618 49.8414 113.649 49.7166C113.662 49.6623 113.676 49.607 113.69 49.5508C113.436 49.8481 113.171 50.1222 112.895 50.373C111.707 51.451 110.431 51.99 109.067 51.99C108.099 51.99 107.373 51.704 106.889 51.132C106.405 50.56 106.163 49.867 106.163 49.053C106.163 48.8902 106.172 48.7138 106.19 48.5237C106.042 48.7262 105.889 48.9247 105.731 49.119C104.895 50.175 103.982 51 102.992 51.594C102.002 52.21 100.979 52.518 99.9229 52.518ZM112.961 37.107C112.543 37.107 112.158 37.008 111.806 36.81C111.476 36.59 111.311 36.26 111.311 35.82C111.311 35.292 111.597 34.841 112.169 34.467C112.741 34.093 113.335 33.906 113.951 33.906C114.347 33.906 114.677 33.994 114.941 34.17C115.227 34.346 115.37 34.665 115.37 35.127C115.37 35.589 115.117 36.04 114.611 36.48C114.105 36.898 113.555 37.107 112.961 37.107ZM138.711 46.479C139.283 46.413 139.921 46.215 140.625 45.885C141.329 45.555 142 45.137 142.638 44.631C143.298 44.125 143.837 43.575 144.255 42.981C144.673 42.365 144.882 41.749 144.882 41.133C144.882 40.891 144.838 40.726 144.75 40.638C144.662 40.55 144.519 40.506 144.321 40.506C143.815 40.506 143.287 40.693 142.737 41.067C142.187 41.419 141.648 41.892 141.12 42.486C140.592 43.058 140.119 43.696 139.701 44.4C139.283 45.104 138.953 45.797 138.711 46.479ZM46.6759 16.9904C46.7811 16.8358 46.8895 16.6765 46.9989 16.5079C46.8457 16.506 46.6926 16.5154 46.5409 16.5361C46.3816 16.5724 46.2217 16.6068 46.0618 16.6413C45.6238 16.7355 45.1858 16.8298 44.7602 16.9631C41.907 17.8546 39.7688 19.5856 38.5493 22.3371C37.6478 24.3722 37.4604 26.5097 37.7466 28.6993C37.7752 28.9199 37.8106 29.1397 37.846 29.3595C37.8627 29.463 37.8793 29.5666 37.8953 29.6702C38.0545 28.8826 38.2917 28.1126 38.6035 27.3713C39.0581 26.3346 39.5634 25.5336 39.9355 25.3218C39.9102 25.4947 39.885 25.6634 39.8602 25.8294C39.816 26.1261 39.7729 26.4145 39.7327 26.7035C39.541 28.0767 39.4903 29.4516 39.7748 30.818C39.8986 31.4106 40.0739 31.9896 40.4245 32.5575C40.5463 32.5087 40.6672 32.4623 40.7866 32.4164C41.0348 32.3211 41.277 32.2281 41.5091 32.1203C43.3138 31.2928 44.5015 29.9495 44.963 28.0067C45.1513 27.1975 45.2533 26.3708 45.2672 25.5404C45.2811 24.9411 45.29 24.3417 45.2989 23.7423C45.3143 22.7104 45.3296 21.6787 45.3704 20.648C45.3981 19.6944 45.6447 18.7597 46.0914 17.9153C46.2604 17.6013 46.4614 17.3057 46.6759 16.9904Z" fill="#669966"/>
</svg>
