<svg width="19" height="19" viewBox="0 0 19 19" fill="none" xmlns="http://www.w3.org/2000/svg">
<path d="M9.50009 0C6.00795 0 3.16675 2.84121 3.16675 6.33335C3.16675 7.38169 3.42885 8.42112 3.92712 9.34306L9.15375 18.7959C9.22333 18.9219 9.35592 19 9.50009 19C9.64426 19 9.77685 18.9219 9.84644 18.7959L15.075 9.33995C15.5713 8.42112 15.8334 7.38165 15.8334 6.33331C15.8334 2.84121 12.9922 0 9.50009 0ZM9.50009 9.5C7.75402 9.5 6.33344 8.07942 6.33344 6.33335C6.33344 4.58728 7.75402 3.16669 9.50009 3.16669C11.2462 3.16669 12.6667 4.58728 12.6667 6.33335C12.6667 8.07942 11.2462 9.5 9.50009 9.5Z" fill="white"/>
</svg>
